<?xml version="1.0" encoding="utf-8"?>
<!-- Generator: Adobe Illustrator 19.0.1, SVG Export Plug-In . SVG Version: 6.00 Build 0)  -->
<svg version="1.1" id="Layer_1" xmlns="http://www.w3.org/2000/svg" xmlns:xlink="http://www.w3.org/1999/xlink" x="0px" y="0px"
	 viewBox="0 0 250 350" style="enable-background:new 0 0 250 350;" xml:space="preserve">
<style type="text/css">
	.st0{fill:#B9DA92;}
	.st1{fill:#5BB250;}
	.st2{fill:#70C276;}
	.st3{fill:#6FC05C;}
	.st4{fill:#C0E0B8;}
	.st5{fill:#ABD7A3;}
	.st6{fill:#FFFFFF;}
	.st7{fill:#E5E5E5;}
	.st8{fill:#B4E1E7;stroke:#B4E1E7;stroke-width:2;stroke-miterlimit:10;stroke-dasharray:5;}
	.st9{fill:#97C3C6;}
	.st10{opacity:0.61;}
	.st11{fill:none;stroke:#C6E8EA;stroke-width:2;stroke-miterlimit:10;}
	.st12{fill:#68BE60;}
	.st13{fill:#93CE95;}
	.st14{fill:#A4D280;}
	.st15{fill:#9DCD55;}
	.st16{fill:#AFD57D;}
	.st17{fill:#CBE2AB;}
	.st18{fill:#9DCC45;}
	.st19{fill:#88C655;}
	.st20{fill:#A2D180;}
	.st21{fill:#8FC96B;}
	.st22{fill:#A6D389;}
	.st23{fill:#A0D07B;}
	.st24{fill:#94CA5A;}
	.st25{fill:#8FC73E;}
</style>
<g>
	<path class="st0" d="M-99.5-67"/>
	<g>
		<polyline class="st1" points="0,268.7 0,0 250,0 250,268.7 125,346.7 0,268.7 250,268.7 		"/>
		<rect x="7" y="5" class="st2" width="236" height="259.5"/>
		<polygon class="st3" points="243,264.5 7,5 7,264.5 125,339.8 		"/>
		<g>
			<path class="st4" d="M61.8,77.7V42.3h13.4v4.9h-6.9v9.6h4.9v5h-4.9v10.9h6.9v4.9H61.8z"/>
			<path class="st5" d="M77.3,77.7V42.3h7.8l3.4,23.6l3.7-23.6h7.5v35.4h-4.8l-0.1-24.9c-0.4,2.6-1,6.7-1.9,12.4s-1.5,9.9-1.9,12.4
				h-4.8l-3.9-25.1l-0.1,25.1H77.3z"/>
			<path class="st5" d="M103.4,77.7V42.3h13.4v4.9h-6.9v9.6h4.9v5h-4.9v10.9h6.9v4.9H103.4z"/>
			<path class="st5" d="M118.9,77.7V42.3h7.1c1.6,0,3,0.2,4.2,0.5c1.2,0.3,2.3,0.9,3.2,1.6c0.9,0.7,1.6,1.7,2.1,2.9s0.7,2.7,0.7,4.4
				c0,0.7,0,1.4-0.1,2c0,0.6-0.2,1.2-0.3,2s-0.4,1.4-0.7,2s-0.7,1.1-1.3,1.7c-0.6,0.6-1.2,1-2,1.4c1.9,6.7,3.6,12.4,5,17.1h-6.7
				l-3.7-16.3h-1.1v16.3H118.9z M125.4,57.1h1.9c0.5,0,0.9-0.2,1.3-0.6c0.4-0.4,0.6-0.8,0.8-1.4c0.2-0.6,0.3-1.1,0.3-1.6
				c0.1-0.5,0.1-0.9,0.1-1.3c0-0.4,0-0.9-0.1-1.3c-0.1-0.4-0.1-0.9-0.3-1.5c-0.1-0.5-0.4-1-0.7-1.3c-0.3-0.3-0.7-0.5-1.1-0.5h-2.2
				V57.1z"/>
			<path class="st5" d="M137,77.7l6.9-35.4h5.7l6.9,35.4h-6.4l-1.3-7.6h-4.2l-1.2,7.6H137z M145.1,65.8h3.3l-1.6-13.1L145.1,65.8z"
				/>
			<path class="st5" d="M158.5,77.7V42.3h6.5v30.5h6.4v4.9H158.5z"/>
			<path class="st5" d="M173.3,77.7V42.3h6.7c2.1,0,3.9,0.2,5.3,0.6c1.4,0.4,2.5,1.1,3.3,2.1c0.8,1,1.3,2.1,1.6,3.5
				c0.3,1.4,0.5,3.1,0.5,5.2v11.6c0,1.3,0,2.4-0.1,3.3c-0.1,0.9-0.2,1.9-0.4,2.8s-0.5,1.7-0.8,2.3c-0.3,0.6-0.8,1.2-1.3,1.7
				c-0.5,0.5-1.2,1-1.9,1.3c-0.8,0.3-1.6,0.6-2.7,0.7c-1,0.2-2.2,0.3-3.5,0.3H173.3z M180,72.7c0.6,0,1.1,0,1.5,0s0.7-0.1,1.1-0.1
				s0.6-0.2,0.8-0.3c0.2-0.1,0.3-0.3,0.5-0.6s0.2-0.6,0.3-0.9c0-0.4,0.1-0.8,0.1-1.3V50.3c0-1.2-0.3-1.9-0.9-2.3
				c-0.6-0.4-1.7-0.6-3.2-0.6V72.7z"/>
			<path class="st6" d="M26.3,119.7V84.3h8.3l3.6,23.6l3.9-23.6h8v35.4H45l-0.2-24.9c-0.4,2.6-1,6.7-2,12.4c-0.9,5.7-1.6,9.9-2,12.4
				h-5.1l-4.2-25.1l-0.2,25.1H26.3z"/>
			<path class="st7" d="M54,119.7V84.3h14.2v4.9h-7.3v9.6h5.2v5h-5.2v10.9h7.3v4.9H54z"/>
			<path class="st7" d="M70.5,119.7V84.3h8.3l3.6,23.6l3.9-23.6h8v35.4h-5.1L89,94.8c-0.4,2.6-1,6.7-2,12.4c-0.9,5.7-1.6,9.9-2,12.4
				h-5.1l-4.2-25.1l-0.2,25.1H70.5z"/>
			<path class="st7" d="M98.2,119.7V84.3h7c1.3,0,2.4,0.1,3.3,0.2c1,0.1,1.9,0.4,2.8,0.8c0.9,0.4,1.7,0.9,2.3,1.6
				c0.6,0.7,1.1,1.6,1.4,2.6c0.4,1.1,0.5,2.4,0.5,3.9c0,1.8-0.4,3.3-1.3,4.4c-0.8,1.1-2.1,1.9-3.9,2.5c4.1,1,6.1,4,6.1,8.9
				c0,3.6-0.8,6.2-2.5,7.9s-4.1,2.6-7.5,2.6H98.2z M105,98.3h1.2c0.6,0,1.2-0.1,1.6-0.4c0.4-0.2,0.8-0.6,1-1.1
				c0.2-0.5,0.4-1,0.5-1.5c0.1-0.6,0.1-1.2,0.1-1.9c0-0.6,0-1.1-0.1-1.6c-0.1-0.4-0.2-0.8-0.3-1.1c-0.1-0.3-0.3-0.5-0.5-0.7
				c-0.2-0.2-0.5-0.4-0.6-0.5c-0.2-0.1-0.5-0.2-0.8-0.2s-0.7-0.1-0.9-0.1c-0.2,0-0.6,0-1.1,0V98.3z M105.1,114.7h0.6
				c0.9,0,1.6-0.1,2.2-0.3c0.6-0.2,1-0.6,1.3-1.1c0.3-0.5,0.5-1.1,0.6-1.8s0.1-1.6,0.1-2.7c0-1.8-0.3-3.3-0.9-4.3s-1.7-1.5-3.2-1.5
				h-0.7V114.7z"/>
			<path class="st7" d="M119.6,119.7V84.3h14.2v4.9h-7.3v9.6h5.2v5h-5.2v10.9h7.3v4.9H119.6z"/>
			<path class="st7" d="M136.1,119.7V84.3h7.5c1.7,0,3.2,0.2,4.5,0.5s2.4,0.9,3.4,1.6c1,0.7,1.7,1.7,2.2,2.9s0.8,2.7,0.8,4.4
				c0,0.7,0,1.4-0.1,2c-0.1,0.6-0.2,1.2-0.4,2c-0.2,0.7-0.4,1.4-0.7,2s-0.8,1.1-1.4,1.7c-0.6,0.6-1.3,1-2.1,1.4
				c2,6.7,3.8,12.4,5.3,17.1H148l-3.9-16.3H143v16.3H136.1z M143,99.1h2c0.5,0,1-0.2,1.4-0.6c0.4-0.4,0.7-0.8,0.8-1.4
				c0.2-0.6,0.3-1.1,0.4-1.6s0.1-0.9,0.1-1.3c0-0.4,0-0.9-0.1-1.3c-0.1-0.4-0.2-0.9-0.3-1.5c-0.1-0.5-0.4-1-0.7-1.3
				c-0.3-0.3-0.7-0.5-1.2-0.5H143V99.1z"/>
			<path class="st7" d="M156,109.6l7-1.4c0,0.7,0,1.4,0,1.9s0.1,1.2,0.2,1.8c0.1,0.6,0.3,1.2,0.4,1.6c0.2,0.4,0.4,0.8,0.8,1
				c0.3,0.3,0.7,0.4,1.2,0.4c1.4,0,2-0.9,2-2.7c0-2.5-1.3-4.9-4-7.4l-2.1-1.9c-0.7-0.6-1.2-1.1-1.6-1.5c-0.4-0.4-0.9-0.9-1.4-1.6
				c-0.5-0.7-1-1.3-1.3-1.9c-0.3-0.6-0.6-1.4-0.8-2.3c-0.2-0.9-0.3-1.8-0.3-2.8c0-2.9,0.9-5.1,2.6-6.8c1.8-1.7,4.1-2.5,7-2.5
				c2.4,0,4.5,0.9,6.2,2.7s2.5,3.9,2.5,6.5l0,0.3c0,0.2,0,0.4,0,0.6l-7.1,1c0-0.1,0-0.4,0-0.7c0-0.3,0-0.6,0-0.8
				c0-0.5,0-0.9-0.1-1.4c-0.1-0.4-0.2-0.9-0.3-1.3c-0.1-0.4-0.4-0.8-0.7-1c-0.3-0.3-0.7-0.4-1.1-0.4c-0.8,0-1.3,0.3-1.7,0.9
				c-0.4,0.6-0.6,1.3-0.6,2.2c0,0.7,0.1,1.4,0.3,2.1c0.2,0.6,0.6,1.2,1,1.8c0.4,0.6,0.9,1,1.2,1.4c0.4,0.4,0.9,0.8,1.5,1.3
				s1.1,0.9,1.3,1.2c1,0.9,1.8,1.7,2.5,2.5c0.7,0.8,1.3,1.7,1.9,2.6s1,2,1.3,3.2c0.3,1.1,0.4,2.4,0.4,3.7c0,2.5-0.9,4.5-2.6,6.1
				c-1.7,1.6-3.8,2.4-6.2,2.4c-1.6,0-3-0.3-4.2-0.9c-1.2-0.6-2.2-1.4-3-2.5c-0.8-1-1.3-2.2-1.7-3.4C156.3,112.4,156.1,111,156,109.6
				z"/>
			<path class="st7" d="M177,119.7V84.3h6.9v14.5h4.9V84.3h6.9v35.4h-6.9v-15.8h-4.9v15.8H177z"/>
			<path class="st7" d="M199.6,119.7V84.3h6.9v35.4H199.6z"/>
			<path class="st7" d="M210.4,119.7V84.3h8.2c3,0,5.1,0.9,6.5,2.6c1.4,1.7,2,4.2,2,7.5c0,1.6-0.1,3-0.4,4.2
				c-0.3,1.2-0.7,2.2-1.2,2.9s-1.2,1.4-2,1.8c-0.8,0.5-1.7,0.8-2.7,1c-1,0.2-2.1,0.3-3.4,0.3v15.1H210.4z M217.3,99.5
				c0.4,0,0.7,0,1-0.1c0.3,0,0.5-0.1,0.7-0.2c0.2-0.1,0.4-0.2,0.6-0.3c0.2-0.2,0.3-0.3,0.4-0.4c0.1-0.1,0.2-0.3,0.3-0.6
				c0.1-0.3,0.1-0.5,0.2-0.7c0-0.2,0.1-0.4,0.1-0.8c0-0.4,0-0.7,0-0.9c0-0.2,0-0.6,0-1.1c0-0.1,0-0.2,0-0.3c0-0.5,0-0.9,0-1.2
				c0-0.3,0-0.6-0.1-1c0-0.4-0.1-0.7-0.2-0.9c-0.1-0.2-0.2-0.4-0.4-0.7c-0.2-0.3-0.4-0.5-0.6-0.6c-0.2-0.1-0.5-0.2-0.9-0.3
				c-0.3-0.1-0.7-0.1-1.2-0.1V99.5z"/>
		</g>
		<path class="st8" d="M202.2,36.5"/>
		<path class="st9" d="M269.7,61.7"/>
		<g class="st10">
			<path class="st11" d="M59.5,29.5c3.2,0,3.2,8,6.3,8c3.2,0,3.2-8,6.3-8c3.2,0,3.2,8,6.3,8c3.2,0,3.2-8,6.3-8c3.2,0,3.2,8,6.3,8
				c3.2,0,3.2-8,6.3-8c3.2,0,3.2,8,6.3,8c3.2,0,3.2-8,6.3-8c3.2,0,3.2,8,6.3,8c3.2,0,3.2-8,6.3-8c3.2,0,3.2,8,6.3,8
				c3.2,0,3.2-8,6.3-8c3.2,0,3.2,8,6.3,8c3.2,0,3.2-8,6.3-8s3.2,8,6.3,8c3.2,0,3.2-8,6.3-8c3.2,0,3.2,8,6.3,8c3.2,0,3.2-8,6.3-8
				c3.2,0,3.2,8,6.3,8c3.2,0,3.2-8,6.3-8c3.2,0,3.2,8,6.3,8"/>
		</g>
		<rect x="27" y="126.7" class="st12" width="199.5" height="8.1"/>
		<polygon class="st2" points="125,134.8 117.6,126.7 21.7,126.7 21.5,134.8 		"/>
		<g>
			<path class="st13" d="M124,207v-3.6c-4.3-0.3-7.6-2-9.9-5.1c-2.3-3-3.6-7-3.9-11.9l7.9-2.1c0.2,6.3,2,10.2,5.3,11.8l0.6,0.3
				v-17.8l-7.9-6.6c-1.8-1.5-3.3-3.4-4.3-5.7c-1.1-2.3-1.6-4.8-1.6-7.8c0-4.2,1.3-7.6,3.8-10.1s5.9-3.8,10.1-3.8v-3.5h4v3.9l1.3,0.3
				c6.5,1.8,10,6.6,10.6,14.3l-7.9,2.1c-0.2-4-1.3-6.9-3.3-8.6l-0.6-0.5v18.2l4,3.3c2.3,1.9,4.2,4.2,5.7,6.8
				c1.5,2.7,2.2,5.7,2.2,9.1c0,3.9-1.1,7-3.2,9.3c-2.1,2.3-5,3.7-8.6,4.1v3.6H124z M124,167.6v-16c-1.9,0-3.4,0.6-4.4,1.7
				s-1.5,2.6-1.5,4.6c0,3.3,1.3,6,4,8.1L124,167.6z M128,196.5c2.6-0.6,4-2.6,4-6c0-1.7-0.3-3.1-0.9-4.3c-0.6-1.2-1.4-2.4-2.5-3.5
				l-0.6-0.6V196.5z"/>
		</g>
		<line class="st14" x1="48.9" y1="42.7" x2="51.1" y2="28.1"/>
		<g>
			<polygon class="st14" points="57.2,25 57.2,79 40.3,69.7 40.3,34.3 			"/>
			<g>
				<polyline class="st0" points="40.3,34.3 57.2,51 40.3,69.7 				"/>
				<polygon class="st15" points="40.3,34.3 57.2,25 51.7,45.5 				"/>
				<polygon class="st16" points="57.2,51 57.2,79 48.8,74.3 				"/>
				<polygon class="st17" points="40.6,52.8 57.2,51 40.6,34.9 				"/>
			</g>
		</g>
		<g>
			<polygon class="st14" points="194.2,25.8 194.2,79.8 211.2,70.5 211.2,35.2 			"/>
			<g>
				<polyline class="st0" points="211.2,35.2 194.2,51.8 211.2,70.5 				"/>
				<polygon class="st15" points="211.2,35.2 194.2,25.8 199.8,46.4 				"/>
				<polygon class="st16" points="194.2,51.8 194.2,79.8 202.7,75.2 				"/>
				<polygon class="st17" points="210.9,53.7 194.2,51.8 210.9,35.8 				"/>
			</g>
		</g>
		<polygon class="st18" points="27,17 38.6,13 32.8,22.5 		"/>
		<polyline class="st19" points="78.5,17.8 83,9.5 86,20 		"/>
		<polyline class="st20" points="20.6,41.2 14.5,53.7 31.1,48.1 		"/>
		<polyline class="st21" points="149.3,13.3 159.5,12.1 155.1,19.5 		"/>
		<polyline class="st22" points="211.9,19.6 221.1,11.4 221.1,27.7 		"/>
		<polyline class="st23" points="118.5,20 118.5,15.8 125,20 		"/>
		<path class="st24" d="M224.5,47.5c0,0,7-3.5,6.5,0c-0.5,3.5-4.5,10-4.5,10"/>
		<polygon class="st25" points="24.5,65.8 14.5,69.7 27,74.5 		"/>
	</g>
</g>
</svg>
